<svg width="18" height="19" viewBox="0 0 18 19" fill="none" xmlns="http://www.w3.org/2000/svg">
<path d="M4.55556 5.88889H9M4.55556 9H11.6667M4.55556 14.3333V16.4093C4.55556 16.883 4.55556 17.1198 4.65265 17.2414C4.73708 17.3472 4.86513 17.4088 5.00048 17.4086C5.15612 17.4084 5.34104 17.2605 5.7109 16.9646L7.83129 15.2683C8.26444 14.9218 8.48107 14.7485 8.72222 14.6253C8.93618 14.516 9.16391 14.4361 9.39929 14.3878C9.66462 14.3333 9.94196 14.3333 10.4966 14.3333H12.7333C14.2268 14.3333 14.9735 14.3333 15.544 14.0427C16.0458 13.787 16.4537 13.3791 16.7093 12.8773C17 12.3068 17 11.5602 17 10.0667V5.26667C17 3.77319 17 3.02645 16.7093 2.45603C16.4537 1.95426 16.0458 1.54631 15.544 1.29065C14.9735 1 14.2268 1 12.7333 1H5.26667C3.77319 1 3.02645 1 2.45603 1.29065C1.95426 1.54631 1.54631 1.95426 1.29065 2.45603C1 3.02645 1 3.77319 1 5.26667V10.7778C1 11.6044 1 12.0178 1.09086 12.3569C1.33744 13.2771 2.05624 13.9959 2.97648 14.2425C3.31559 14.3333 3.72892 14.3333 4.55556 14.3333Z" stroke="#3EB075" stroke-width="1.6" stroke-linecap="round" stroke-linejoin="round"/>
</svg>
