<svg width="21" height="22" viewBox="0 0 21 22" fill="none" xmlns="http://www.w3.org/2000/svg">
<path opacity="0.5" fill-rule="evenodd" clip-rule="evenodd" d="M3.88235 3.89271V4.20588C3.88235 4.4633 3.98461 4.71017 4.16663 4.89219C4.34865 5.07421 4.59553 5.17647 4.85294 5.17647C5.11036 5.17647 5.35723 5.07421 5.53925 4.89219C5.72127 4.71017 5.82353 4.4633 5.82353 4.20588V3.88235H14.2353V4.20588C14.2353 4.4633 14.3376 4.71017 14.5196 4.89219C14.7016 5.07421 14.9485 5.17647 15.2059 5.17647C15.4633 5.17647 15.7102 5.07421 15.8922 4.89219C16.0742 4.71017 16.1765 4.4633 16.1765 4.20588V3.89271C16.3197 3.89788 16.45 3.90522 16.5673 3.91471C16.94 3.94447 17.1173 3.99883 17.2338 4.05835C17.5392 4.21365 17.7864 4.46083 17.9416 4.76624C18.0012 4.88271 18.0555 5.06 18.0853 5.43141C18.1164 5.81447 18.1176 6.31141 18.1176 7.05294V7.76471H1.94118V7.05294C1.94118 6.31271 1.94118 5.81447 1.97353 5.43141C2.0033 5.06 2.05765 4.88271 2.11718 4.76624C2.27235 4.46136 2.52018 4.21353 2.82506 4.05835C2.94153 3.99883 3.11882 3.94447 3.49024 3.91471C3.62074 3.90407 3.75148 3.89673 3.88235 3.89271ZM8.08824 4.85294C7.83082 4.85294 7.58395 4.9552 7.40193 5.13722C7.21991 5.31924 7.11765 5.56612 7.11765 5.82353C7.11765 6.08095 7.21991 6.32782 7.40193 6.50984C7.58395 6.69186 7.83082 6.79412 8.08824 6.79412H11.9706C12.228 6.79412 12.4749 6.69186 12.6569 6.50984C12.8389 6.32782 12.9412 6.08095 12.9412 5.82353C12.9412 5.56612 12.8389 5.31924 12.6569 5.13722C12.4749 4.9552 12.228 4.85294 11.9706 4.85294H8.08824Z" fill="#3EB075"/>
<path d="M5.5 13.9117C5.92902 13.9117 6.34048 13.7413 6.64385 13.4379C6.94722 13.1346 7.11765 12.7231 7.11765 12.2941C7.11765 11.8651 6.94722 11.4536 6.64385 11.1503C6.34048 10.8469 5.92902 10.6765 5.5 10.6765C5.07097 10.6765 4.65952 10.8469 4.35615 11.1503C4.05278 11.4536 3.88235 11.8651 3.88235 12.2941C3.88235 12.7231 4.05278 13.1346 4.35615 13.4379C4.65952 13.7413 5.07097 13.9117 5.5 13.9117ZM5.5 18.4412C5.92902 18.4412 6.34048 18.2707 6.64385 17.9674C6.94722 17.664 7.11765 17.2525 7.11765 16.8235C7.11765 16.3945 6.94722 15.983 6.64385 15.6797C6.34048 15.3763 5.92902 15.2059 5.5 15.2059C5.07097 15.2059 4.65952 15.3763 4.35615 15.6797C4.05278 15.983 3.88235 16.3945 3.88235 16.8235C3.88235 17.2525 4.05278 17.664 4.35615 17.9674C4.65952 18.2707 5.07097 18.4412 5.5 18.4412ZM11.6471 12.2941C11.6471 12.7231 11.4766 13.1346 11.1733 13.4379C10.8699 13.7413 10.4584 13.9117 10.0294 13.9117C9.60038 13.9117 9.18893 13.7413 8.88556 13.4379C8.58219 13.1346 8.41176 12.7231 8.41176 12.2941C8.41176 11.8651 8.58219 11.4536 8.88556 11.1503C9.18893 10.8469 9.60038 10.6765 10.0294 10.6765C10.4584 10.6765 10.8699 10.8469 11.1733 11.1503C11.4766 11.4536 11.6471 11.8651 11.6471 12.2941ZM10.0294 18.4412C10.4584 18.4412 10.8699 18.2707 11.1733 17.9674C11.4766 17.664 11.6471 17.2525 11.6471 16.8235C11.6471 16.3945 11.4766 15.983 11.1733 15.6797C10.8699 15.3763 10.4584 15.2059 10.0294 15.2059C9.60038 15.2059 9.18893 15.3763 8.88556 15.6797C8.58219 15.983 8.41176 16.3945 8.41176 16.8235C8.41176 17.2525 8.58219 17.664 8.88556 17.9674C9.18893 18.2707 9.60038 18.4412 10.0294 18.4412ZM16.1765 12.2941C16.1765 12.7231 16.006 13.1346 15.7027 13.4379C15.3993 13.7413 14.9878 13.9117 14.5588 13.9117C14.1298 13.9117 13.7183 13.7413 13.415 13.4379C13.1116 13.1346 12.9412 12.7231 12.9412 12.2941C12.9412 11.8651 13.1116 11.4536 13.415 11.1503C13.7183 10.8469 14.1298 10.6765 14.5588 10.6765C14.9878 10.6765 15.3993 10.8469 15.7027 11.1503C16.006 11.4536 16.1765 11.8651 16.1765 12.2941Z" fill="#3EB075"/>
<path fill-rule="evenodd" clip-rule="evenodd" d="M4.85294 0C5.11036 0 5.35723 0.102258 5.53925 0.284279C5.72127 0.466299 5.82353 0.713172 5.82353 0.970588V1.94118H14.2353V0.970588C14.2353 0.713172 14.3376 0.466299 14.5196 0.284279C14.7016 0.102258 14.9485 0 15.2059 0C15.4633 0 15.7102 0.102258 15.8922 0.284279C16.0742 0.466299 16.1765 0.713172 16.1765 0.970588V1.95153C16.3732 1.95671 16.5565 1.9662 16.7265 1.98C17.2182 2.01882 17.6789 2.10682 18.1151 2.32941C18.7848 2.67063 19.3294 3.21517 19.6706 3.88494C19.8932 4.32106 19.9812 4.78176 20.02 5.27353C20.0588 5.74588 20.0588 6.32176 20.0588 7.01412V16.9271C20.0588 17.6194 20.0588 18.1953 20.02 18.6676C19.9812 19.1594 19.8932 19.6201 19.6706 20.0562C19.3297 20.7258 18.7856 21.2703 18.1164 21.6118C17.6789 21.8344 17.2182 21.9224 16.7265 21.9612C16.2541 22 15.6782 22 14.9872 22H5.07294C4.38059 22 3.80471 22 3.33235 21.9612C2.84059 21.9224 2.37988 21.8344 1.94376 21.6118C1.27438 21.2712 0.729896 20.7276 0.388236 20.0588C0.165647 19.6214 0.0776473 19.1607 0.0388238 18.6689C2.72384e-07 18.1966 0 17.6207 0 16.9296V7.01412C0 6.32176 2.72384e-07 5.74588 0.0388238 5.27353C0.0776473 4.78176 0.165647 4.32106 0.388236 3.88494C0.729456 3.21517 1.27399 2.67063 1.94376 2.32941C2.37988 2.10682 2.84059 2.01882 3.33235 1.98C3.50231 1.9662 3.68565 1.95671 3.88235 1.95153V0.970588C3.88235 0.843129 3.90746 0.716917 3.95623 0.59916C4.00501 0.481403 4.0765 0.374406 4.16663 0.284279C4.25676 0.194151 4.36376 0.122658 4.48151 0.0738815C4.59927 0.0251049 4.72548 0 4.85294 0ZM3.88235 4.20588V3.89271C3.75148 3.89673 3.62073 3.90407 3.49024 3.91471C3.11882 3.94447 2.94153 3.99882 2.82506 4.05835C2.52018 4.21353 2.27235 4.46136 2.11718 4.76624C2.05765 4.88271 2.00329 5.06 1.97353 5.43141C1.94247 5.81447 1.94118 6.31141 1.94118 7.05294V7.76471H18.1176V7.05294C18.1176 6.31271 18.1176 5.81447 18.0853 5.43141C18.0555 5.06 18.0012 4.88271 17.9416 4.76624C17.7865 4.46136 17.5386 4.21353 17.2338 4.05835C17.1173 3.99882 16.94 3.94447 16.5673 3.91471C16.4372 3.90409 16.3069 3.89675 16.1765 3.89271V4.20588C16.1765 4.4633 16.0742 4.71017 15.8922 4.89219C15.7102 5.07421 15.4633 5.17647 15.2059 5.17647C14.9485 5.17647 14.7016 5.07421 14.5196 4.89219C14.3376 4.71017 14.2353 4.4633 14.2353 4.20588V3.88235H5.82353V4.20588C5.82353 4.4633 5.72127 4.71017 5.53925 4.89219C5.35723 5.07421 5.11036 5.17647 4.85294 5.17647C4.59553 5.17647 4.34865 5.07421 4.16663 4.89219C3.98461 4.71017 3.88235 4.4633 3.88235 4.20588ZM18.1176 9.05882H1.94118V16.8882C1.94118 17.6285 1.94118 18.1267 1.97353 18.5085C2.00329 18.8812 2.05765 19.0585 2.11718 19.1749C2.27247 19.4804 2.51965 19.7275 2.82506 19.8828C2.94153 19.9424 3.11882 19.9967 3.49024 20.0265C3.87329 20.0575 4.37023 20.0588 5.11176 20.0588H14.9471C15.6873 20.0588 16.1855 20.0588 16.5673 20.0265C16.94 19.9967 17.1173 19.9424 17.2338 19.8828C17.5386 19.7276 17.7865 19.4798 17.9416 19.1749C18.0012 19.0585 18.0555 18.8812 18.0853 18.5085C18.1164 18.1267 18.1176 17.6285 18.1176 16.8882V9.05882Z" fill="#3EB075"/>
</svg>
