<svg width="405" height="405" viewBox="0 0 405 405" fill="none" xmlns="http://www.w3.org/2000/svg">
<rect width="405" height="405" fill="#3EB075"/>
<path d="M286.7 137.484V218.895C286.7 242.358 267.529 261.378 243.879 261.378C238.586 261.378 234.876 256.195 236.621 251.236L253.23 204.048C253.949 202.002 254.168 199.814 253.868 197.667C253.568 195.519 252.758 193.476 251.505 191.706C250.252 189.936 248.593 188.493 246.668 187.496C244.742 186.5 242.605 185.979 240.437 185.979H225.299C220.238 185.979 216.557 181.211 217.877 176.363L224.47 152.141C225.024 150.091 225.099 147.941 224.688 145.858C224.277 143.775 223.393 141.814 222.102 140.128C220.812 138.441 219.15 137.075 217.247 136.134C215.343 135.194 213.249 134.704 211.125 134.703H184.462C181.448 134.702 178.518 135.691 176.121 137.519C173.724 139.347 171.995 141.911 171.2 144.818L155.739 201.29L154.625 205.357C154.064 207.398 153.982 209.541 154.385 211.618C154.789 213.696 155.667 215.652 156.95 217.335C158.233 219.017 159.889 220.381 161.786 221.319C163.683 222.257 165.771 222.744 167.887 222.743H180.969C184.577 222.743 187.716 225.228 188.477 228.727C188.994 231.107 189.267 233.577 189.267 236.111V247.013C189.267 247.736 189.163 248.455 188.959 249.15L186.977 255.888C186.02 259.142 183.013 261.378 179.597 261.378H161.822C138.172 261.378 119 242.357 119 218.894V137.484C119 114.02 138.171 95 161.821 95H243.879C267.528 95 286.7 114.021 286.7 137.484Z" fill="#FAFCFE"/>
<path d="M189.267 236.111V275.144C189.267 294.395 173.537 310 154.134 310C134.73 310 119 294.395 119 275.144V201.254H154.134C154.671 201.254 155.207 201.266 155.739 201.29L154.625 205.357C154.064 207.398 153.982 209.541 154.385 211.618C154.789 213.696 155.667 215.652 156.95 217.335C158.233 219.017 159.889 220.381 161.786 221.319C163.683 222.257 165.628 222.893 167.825 222.893L175.178 222.972L178.42 223.285L181.187 224.227L182.61 225.403C177.55 224.619 189.267 231.374 189.267 236.111Z" fill="#FAFCFE"/>
</svg>
