<svg width="1061" height="1371" viewBox="0 0 1061 1371" fill="none" xmlns="http://www.w3.org/2000/svg">
<path d="M1060.77 271.047V790.01C1060.77 939.58 939.533 1060.83 789.972 1060.83C756.494 1060.83 733.035 1027.79 744.073 996.177L849.105 695.366C853.654 682.326 855.038 668.379 853.145 654.69C851.247 641 846.12 627.974 838.198 616.692C830.276 605.41 819.784 596.207 807.606 589.854C795.428 583.505 781.915 580.187 768.204 580.182H672.468C640.461 580.182 617.186 549.787 625.532 518.886L667.225 364.479C670.728 351.412 671.201 337.704 668.604 324.425C666.007 311.146 660.416 298.647 652.251 287.897C644.095 277.148 633.585 268.436 621.546 262.439C609.508 256.447 596.261 253.322 582.834 253.318H414.214C395.151 253.309 376.62 259.617 361.461 271.268C346.307 282.919 335.373 299.269 330.341 317.797L232.564 677.785L225.521 703.712C221.972 716.72 221.454 730.383 224.006 743.626C226.558 756.869 232.108 769.341 240.224 780.068C248.34 790.79 258.809 799.484 270.807 805.463C282.805 811.442 296.007 814.549 309.393 814.54H392.125C414.94 814.54 434.792 830.38 439.603 852.686C442.876 867.859 444.599 883.604 444.599 899.756V969.254C444.599 973.862 443.945 978.448 442.651 982.875L430.116 1025.83C424.066 1046.57 405.052 1060.83 383.446 1060.83H271.033C121.472 1060.83 0.225586 939.575 0.225586 790.006V271.043C0.225586 121.473 121.467 0.225342 271.028 0.225342H789.968C939.529 0.225342 1060.77 121.478 1060.77 271.047Z" fill="#FAFCFE"/>
<path d="M444.599 899.756V1148.58C444.599 1271.3 345.121 1370.77 222.414 1370.77C99.7031 1370.77 0.225586 1271.3 0.225586 1148.58V677.56H222.414C225.814 677.56 229.2 677.636 232.564 677.785L225.521 703.712C221.973 716.721 221.454 730.383 224.006 743.626C226.558 756.869 232.108 769.341 240.224 780.068C248.34 790.791 258.809 799.484 270.807 805.463C282.805 811.442 295.107 815.5 309 815.5L355.5 816L376 818L393.5 824L402.5 831.5C370.5 826.5 444.599 869.563 444.599 899.756Z" fill="#FAFCFE"/>
</svg>
