<svg width="151" height="139" viewBox="0 0 151 139" fill="none" xmlns="http://www.w3.org/2000/svg">
<circle cx="83" cy="73.1286" r="65" fill="#3EB075"/>
<path d="M98.0589 67.7573C99.6546 67.7573 101.016 67.1938 102.143 66.0668C103.27 64.9398 103.833 63.5785 103.833 61.9828C103.833 60.3871 103.27 59.0257 102.143 57.8987C101.016 56.7718 99.6546 56.2083 98.0589 56.2083C96.4632 56.2083 95.106 56.7689 93.9873 57.89C92.8687 59.0111 92.3094 60.3724 92.3094 61.974C92.3094 63.5756 92.8683 64.9398 93.9863 66.0668C95.1042 67.1938 96.4618 67.7573 98.0589 67.7573ZM67.9412 67.7573C69.5368 67.7573 70.894 67.1967 72.0127 66.0756C73.1313 64.9545 73.6906 63.5931 73.6906 61.9915C73.6906 60.39 73.1317 59.0257 72.0138 57.8987C70.8958 56.7718 69.5382 56.2083 67.9412 56.2083C66.3455 56.2083 64.9841 56.7718 63.8571 57.8987C62.7301 59.0257 62.1667 60.3871 62.1667 61.9828C62.1667 63.5785 62.7301 64.9398 63.8571 66.0668C64.9841 67.1938 66.3455 67.7573 67.9412 67.7573ZM83 95.9411C87.5833 95.9411 91.8021 94.7085 95.6563 92.2432C98.3214 90.5385 100.48 88.4104 102.132 85.8589C103.206 84.2009 101.876 82.1911 99.9009 82.1911C98.9106 82.1911 98.0102 82.7294 97.4355 83.5358C95.9755 85.5842 94.1172 87.205 91.8605 88.3981C89.1308 89.8414 86.1938 90.563 83.0494 90.563C79.9051 90.563 76.9557 89.8587 74.2014 88.4502C71.9391 87.2933 70.1018 85.6792 68.6894 83.6079C68.1137 82.7636 67.1911 82.1911 66.1692 82.1911C64.1739 82.1911 62.843 84.2338 63.943 85.8984C65.6174 88.4324 67.7684 90.5473 70.3958 92.2432C74.2153 94.7085 78.4167 95.9411 83 95.9411ZM83.0014 115.418C77.1535 115.418 71.6575 114.312 66.5133 112.099C61.3692 109.887 56.8889 106.873 53.0725 103.056C49.256 99.2397 46.2416 94.7599 44.0292 89.6166C41.8168 84.4734 40.7106 78.9778 40.7106 73.13C40.7106 67.2821 41.8168 61.7861 44.0292 56.642C46.2416 51.4978 49.2547 47.0171 53.0685 43.1998C56.8824 39.3825 61.3615 36.3639 66.506 34.144C71.6505 31.9242 77.1473 30.8142 82.9966 30.8142C88.8458 30.8142 94.3435 31.9235 99.4896 34.1422C104.636 36.3607 109.117 39.3775 112.933 43.1926C116.749 47.0077 119.767 51.4884 121.986 56.6346C124.205 61.7808 125.314 67.2795 125.314 73.1307C125.314 78.9808 124.204 84.4779 121.985 89.6217C119.765 94.7656 116.746 99.2448 112.929 103.059C109.112 106.874 104.631 109.887 99.488 112.099C94.3448 114.312 88.8492 115.418 83.0014 115.418ZM83 108.321C92.8207 108.321 101.141 104.911 107.962 98.0904C114.782 91.2699 118.193 82.9493 118.193 73.1286C118.193 63.3079 114.782 54.9873 107.962 48.1668C101.141 41.3464 92.8207 37.9361 83 37.9361C73.1793 37.9361 64.8587 41.3464 58.0382 48.1668C51.2178 54.9873 47.8075 63.3079 47.8075 73.1286C47.8075 82.9493 51.2178 91.2699 58.0382 98.0904C64.8587 104.911 73.1793 108.321 83 108.321Z" fill="white"/>
<path d="M98.7277 4.77598C100.164 2.50451 107.787 -0.825056 110.805 3.31386C114.435 8.29159 115.046 8.24207 120.565 5.35564C120.999 5.129 121.507 5.06083 121.975 5.2035C128.138 7.0832 123.852 11.0785 126.94 16.3316C127.115 16.6295 127.38 16.8705 127.7 16.9994C132.63 18.9824 136.324 12.3951 141.583 15.9522C142.023 16.2494 142.289 16.7473 142.25 17.2763C141.956 21.2373 138.129 29.3155 144.144 30.0496C150.616 30.8394 149.125 41.7838 146.605 42.1716" stroke="#3EB075" stroke-width="2" stroke-linecap="round"/>
<path d="M11.0586 75.1112C8.56323 76.1089 3.89883 82.9965 7.41766 86.7191C11.6496 91.1962 11.4894 91.7883 7.64457 96.6879C7.34268 97.0726 7.1828 97.5606 7.23774 98.0465C7.96158 104.449 12.6717 100.964 17.2734 104.958C17.5343 105.184 17.723 105.489 17.7913 105.827C18.8416 111.036 11.6908 113.467 14.2288 119.287C14.4408 119.773 14.8819 120.125 15.4091 120.183C19.3572 120.617 27.998 118.328 27.6224 124.376C27.2184 130.883 38.2509 131.415 39.092 129.008" stroke="#3EB075" stroke-width="2" stroke-linecap="round"/>
</svg>
